Coordinates
version=1
nRows=32
nColumns=12
inDegrees=yes

Units are S.I. units (second, meters, Newtons, ...)
Angles are in degrees

endheader
time	SC_y	SC_z	SC_x	AC_y	AC_z	AC_x	GH_y	GH_z	GH_yy	EL_x	PS_y
       0.0              -57.38          5.437          13.07           32.8          -14.7         -14.98          65.01         -17.83          99.93          35.52          49.29
   0.02441              -57.37          5.438          13.07           32.8          -14.7         -14.98           65.0         -17.81          99.93          35.52          49.29
   0.04883              -57.37          5.439          13.07           32.8          -14.7         -14.98           65.0          -17.8          99.93          35.53          49.28
   0.07324              -57.36           5.44          13.08          32.81         -14.69         -14.98          64.99         -17.78          99.93          35.53          49.28
   0.09765              -57.35          5.442          13.08          32.81         -14.69         -14.98          64.99         -17.76          99.93          35.54          49.28
    0.1221              -57.35          5.443          13.08          32.82         -14.69         -14.98          64.98         -17.75          99.93          35.54          49.28
    0.1465              -57.34          5.444          13.09          32.82         -14.68         -14.98          64.98         -17.73          99.93          35.55          49.27
    0.1709              -57.33          5.445          13.09          32.83         -14.68         -14.98          64.97         -17.71          99.93          35.55          49.27
    0.1953              -57.33          5.447          13.09          32.83         -14.67         -14.98          64.96         -17.68          99.93          35.56          49.27
    0.2197              -57.32          5.448           13.1          32.84         -14.67         -14.99          64.95         -17.66          99.93          35.57          49.26
    0.2441              -57.31           5.45           13.1          32.85         -14.66         -14.99          64.95         -17.63          99.93          35.58          49.26
    0.2686               -57.3          5.452          13.11          32.85         -14.66         -14.99          64.94          -17.6          99.93          35.58          49.25
     0.293              -57.29          5.454          13.11          32.86         -14.65         -14.99          64.93         -17.57          99.93          35.59          49.25
    0.3174              -57.28          5.456          13.12          32.87         -14.64         -14.99          64.92         -17.54          99.93           35.6          49.24
    0.3418              -57.27          5.458          13.12          32.88         -14.64         -14.99           64.9         -17.51          99.93          35.61          49.24
    0.3662              -57.26          5.461          13.13          32.89         -14.63         -14.99          64.89         -17.47          99.93          35.62          49.23
    0.3906              -57.24          5.464          13.14           32.9         -14.62         -14.99          64.88         -17.43          99.93          35.63          49.23
     0.415              -57.23          5.467          13.14          32.91         -14.61         -14.99          64.86         -17.38          99.93          35.65          49.22
    0.4394              -57.21           5.47          13.15          32.93          -14.6         -14.99          64.85         -17.33          99.93          35.66          49.21
    0.4639              -57.19          5.473          13.16          32.94         -14.59         -14.99          64.83         -17.28          99.93          35.68           49.2
    0.4883              -57.17          5.477          13.17          32.96         -14.57          -15.0          64.81         -17.22          99.94          35.69          49.19
    0.5127              -57.15          5.481          13.18          32.97         -14.56          -15.0          64.79         -17.15          99.94          35.71          49.18
    0.5371              -57.13          5.486          13.19          32.99         -14.54          -15.0          64.77         -17.08          99.94          35.73          49.17
    0.5615               -57.1          5.491          13.21          33.01         -14.53          -15.0          64.74          -17.0          99.94          35.76          49.16
    0.5859              -57.07          5.497          13.22          33.04         -14.51          -15.0          64.71         -16.91          99.94          35.78          49.14
    0.6103              -57.04          5.504          13.24          33.06         -14.49         -15.01          64.68         -16.82          99.94          35.81          49.13
    0.6348               -57.0          5.511          13.26          33.09         -14.46         -15.01          64.64          -16.7          99.94          35.84          49.11
    0.6592              -56.96          5.519          13.28          33.12         -14.44         -15.01           64.6         -16.58          99.94          35.88          49.09
    0.6836              -56.91          5.528           13.3          33.16          -14.4         -15.01          64.56         -16.44          99.94          35.92          49.07
     0.708              -56.86          5.539          13.33           33.2         -14.37         -15.02          64.51         -16.28          99.94          35.96          49.04
    0.7324               -56.8          5.551          13.36          33.25         -14.33         -15.02          64.45          -16.1          99.95          36.02          49.01
    0.7568              -56.73          5.564          13.39           33.3         -14.29         -15.03          64.38         -15.89          99.95          36.08          48.98
